<?xml version="1.0" standalone="no"?>
<!DOCTYPE svg PUBLIC "-//W3C//DTD SVG 20010904//EN"
 "http://www.w3.org/TR/2001/REC-SVG-20010904/DTD/svg10.dtd">
<svg version="1.0" xmlns="http://www.w3.org/2000/svg"
 width="384.000000pt" height="384.000000pt" viewBox="0 0 384.000000 384.000000"
 preserveAspectRatio="xMidYMid meet">
<metadata>
Created by potrace 1.14, written by Peter Selinger 2001-2017
</metadata>
<g transform="translate(0.000000,384.000000) scale(0.100000,-0.100000)"
fill="#000000" stroke="none">
<path d="M2010 3735 c-424 -55 -821 -282 -1138 -650 -473 -549 -664 -1297
-497 -1945 176 -682 760 -1129 1396 -1070 391 36 748 217 1066 537 525 530
775 1332 632 2027 -25 118 -87 302 -133 395 -128 251 -332 463 -561 581 -217
111 -510 159 -765 125z m569 -942 c58 -43 84 -158 62 -278 -14 -76 -69 -188
-121 -247 -46 -53 -128 -98 -177 -98 -126 0 -220 179 -179 340 39 150 145 268
271 301 46 12 114 3 144 -18z m-940 -58 c43 -22 65 -77 69 -174 4 -71 0 -96
-23 -168 -57 -174 -192 -296 -299 -269 -14 3 -42 20 -61 38 -124 108 -109 338
32 489 82 88 205 125 282 84z m806 -1049 c36 -24 66 -96 72 -170 17 -213 -141
-456 -297 -456 -127 0 -221 160 -191 326 24 130 126 265 232 306 55 22 146 19
184 -6z m-923 -53 c63 -60 76 -227 28 -356 -57 -151 -188 -269 -281 -250 -45
9 -113 75 -139 135 -48 112 -10 292 85 397 95 105 238 140 307 74z"/>
</g>
</svg>
