<svg width="41" height="41" xmlns="http://www.w3.org/2000/svg" xmlns:xlink="http://www.w3.org/1999/xlink" xml:space="preserve" overflow="hidden"><g><path d="M20.5026 5.55208C12.247 5.55208 5.55465 12.2445 5.55465 20.5 5.55465 28.7555 12.247 35.4479 20.5026 35.4479 28.7581 35.4479 35.4505 28.7555 35.4505 20.5 35.4411 12.2484 28.7542 5.56148 20.5026 5.55208ZM20.5026 32.8854C13.6623 32.8854 8.11715 27.3403 8.11715 20.5 8.11715 13.6597 13.6623 8.11458 20.5026 8.11458 27.3429 8.11458 32.888 13.6597 32.888 20.5 32.8802 27.337 27.3396 32.8776 20.5026 32.8854Z"/><path d="M20.5026 9.82292C14.6058 9.82292 9.82548 14.6032 9.82548 20.5 9.82548 26.3968 14.6058 31.1771 20.5026 31.1771 26.3993 31.1771 31.1796 26.3968 31.1796 20.5 31.1731 14.606 26.3966 9.82949 20.5026 9.82292ZM17.2994 25.625C16.238 25.625 15.3776 24.7646 15.3776 23.7031 15.3776 22.6417 16.238 21.7812 17.2994 21.7812 18.3609 21.7812 19.2213 22.6417 19.2213 23.7031 19.2213 24.7646 18.3609 25.625 17.2994 25.625ZM17.2994 19.2188C16.238 19.2188 15.3776 18.3583 15.3776 17.2969 15.3776 16.2354 16.238 15.375 17.2994 15.375 18.3609 15.375 19.2213 16.2354 19.2213 17.2969 19.2213 18.3583 18.3609 19.2188 17.2994 19.2188ZM23.7057 25.625C22.6443 25.625 21.7838 24.7646 21.7838 23.7031 21.7838 22.6417 22.6443 21.7812 23.7057 21.7812 24.7671 21.7812 25.6276 22.6417 25.6276 23.7031 25.6276 24.7646 24.7671 25.625 23.7057 25.625ZM23.7057 19.2188C22.6443 19.2188 21.7838 18.3583 21.7838 17.2969 21.7838 16.2354 22.6443 15.375 23.7057 15.375 24.7671 15.375 25.6276 16.2354 25.6276 17.2969 25.6276 18.3583 24.7671 19.2188 23.7057 19.2188Z"/></g></svg>